<svg width="12" height="14" viewBox="0 0 12 14" fill="none" xmlns="http://www.w3.org/2000/svg">
<path d="M8.5 1V3.66667M3.5 1V3.66667M1 6.33333H11M1 3.66667C1 3.31304 1.1317 2.97391 1.36612 2.72386C1.60054 2.47381 1.91848 2.33333 2.25 2.33333H9.75C10.0815 2.33333 10.3995 2.47381 10.6339 2.72386C10.8683 2.97391 11 3.31304 11 3.66667V11.6667C11 12.0203 10.8683 12.3594 10.6339 12.6095C10.3995 12.8595 10.0815 13 9.75 13H2.25C1.91848 13 1.60054 12.8595 1.36612 12.6095C1.1317 12.3594 1 12.0203 1 11.6667V3.66667Z" stroke="#9F9F9F" stroke-linecap="round" stroke-linejoin="round"/>
</svg>
