<svg width="12" height="12" viewBox="0 0 12 12" fill="none" xmlns="http://www.w3.org/2000/svg">
<path d="M7.11111 7.66667L6 6V3.22222M1 6C1 6.65661 1.12933 7.30679 1.3806 7.91342C1.63188 8.52005 2.00017 9.07124 2.46447 9.53553C2.92876 9.99983 3.47996 10.3681 4.08658 10.6194C4.69321 10.8707 5.34339 11 6 11C6.65661 11 7.30679 10.8707 7.91342 10.6194C8.52005 10.3681 9.07124 9.99983 9.53553 9.53553C9.99983 9.07124 10.3681 8.52005 10.6194 7.91342C10.8707 7.30679 11 6.65661 11 6C11 5.34339 10.8707 4.69321 10.6194 4.08658C10.3681 3.47996 9.99983 2.92876 9.53553 2.46447C9.07124 2.00017 8.52005 1.63188 7.91342 1.3806C7.30679 1.12933 6.65661 1 6 1C5.34339 1 4.69321 1.12933 4.08658 1.3806C3.47996 1.63188 2.92876 2.00017 2.46447 2.46447C2.00017 2.92876 1.63188 3.47996 1.3806 4.08658C1.12933 4.69321 1 5.34339 1 6Z" stroke="#9F9F9F" stroke-linecap="round" stroke-linejoin="round"/>
</svg>
