<svg width="10" height="12" viewBox="0 0 10 12" fill="none" xmlns="http://www.w3.org/2000/svg">
<path d="M8.53536 1.54418C9.4533 2.51199 9.9783 3.8183 9.99934 5.18688C10.0204 6.55547 9.53583 7.87904 8.64814 8.87772L8.53536 9.00074L6.1782 11.4857C5.87912 11.8008 5.4776 11.9844 5.05498 11.999C4.63237 12.0137 4.22027 11.8585 3.90215 11.5648L3.82215 11.4857L1.46444 9.00015C0.526774 8.01143 0 6.67043 0 5.27217C0 3.8739 0.526774 2.53291 1.46444 1.54418C2.4021 0.555459 3.67384 0 4.9999 0C6.32596 0 7.5977 0.555459 8.53536 1.54418ZM4.9999 3.51479C4.78104 3.51479 4.56432 3.56024 4.36211 3.64856C4.15991 3.73688 3.97618 3.86632 3.82142 4.02951C3.66666 4.1927 3.5439 4.38643 3.46014 4.59965C3.37639 4.81286 3.33328 5.04138 3.33328 5.27217C3.33328 5.50295 3.37639 5.73147 3.46014 5.94469C3.5439 6.1579 3.66666 6.35163 3.82142 6.51482C3.97618 6.67801 4.15991 6.80746 4.36211 6.89577C4.56432 6.98409 4.78104 7.02954 4.9999 7.02954C5.44192 7.02954 5.86583 6.84439 6.17838 6.51482C6.49093 6.18525 6.66652 5.73825 6.66652 5.27217C6.66652 4.80608 6.49093 4.35909 6.17838 4.02951C5.86583 3.69994 5.44192 3.51479 4.9999 3.51479Z" fill="#9F9F9F"/>
</svg>
