<svg width="143" height="136" viewBox="0 0 143 136" fill="none" xmlns="http://www.w3.org/2000/svg">
<path d="M61.1579 102.445L47.3684 95.5558M47.3684 95.5558L6 116.223V26.6667L47.3684 6M47.3684 95.5558V6M47.3684 6L88.7368 26.6667M88.7368 26.6667L130.105 6V57.6668M88.7368 26.6667V61.1113M124.589 117.6L137 130M88.7368 102.445C88.7368 107.926 90.916 113.183 94.7951 117.058C98.6741 120.934 103.935 123.111 109.421 123.111C114.907 123.111 120.168 120.934 124.047 117.058C127.926 113.183 130.105 107.926 130.105 102.445C130.105 96.9636 127.926 91.7069 124.047 87.8311C120.168 83.9554 114.907 81.778 109.421 81.778C103.935 81.778 98.6741 83.9554 94.7951 87.8311C90.916 91.7069 88.7368 96.9636 88.7368 102.445Z" stroke="#999999" stroke-width="12" stroke-linecap="round" stroke-linejoin="round"/>
</svg>
